<?xml version="1.0" standalone="no"?>
<!DOCTYPE svg PUBLIC "-//W3C//DTD SVG 20010904//EN"
 "http://www.w3.org/TR/2001/REC-SVG-20010904/DTD/svg10.dtd">
<svg version="1.0" xmlns="http://www.w3.org/2000/svg"
 width="512.000000pt" height="512.000000pt" viewBox="0 0 512.000000 512.000000"
 preserveAspectRatio="xMidYMid meet">
<metadata>
Created by potrace 1.15, written by Peter Selinger 2001-2017
</metadata>
<g transform="translate(0.000000,512.000000) scale(0.100000,-0.100000)"
fill="#ccc" stroke="none">
<path d="M1739 3970 c-315 -39 -587 -242 -708 -527 -56 -130 -65 -184 -65
-358 0 -145 3 -168 27 -248 31 -102 62 -166 123 -257 60 -91 1397 -1426 1438
-1436 27 -6 61 26 735 702 647 649 710 716 751 788 92 165 126 312 117 504 -9
197 -70 358 -195 513 -283 351 -804 428 -1187 173 -31 -20 -92 -70 -136 -111
l-79 -75 -79 75 c-93 87 -164 136 -266 183 -136 63 -329 93 -476 74z m273
-171 c72 -18 101 -96 54 -144 -29 -28 -52 -33 -221 -39 -140 -5 -224 -22 -321
-66 -176 -79 -327 -235 -406 -420 -31 -73 -36 -57 -13 47 78 368 324 597 680
632 78 8 171 4 227 -10z"/>
</g>
</svg>
